   <svg
                  width="24"
                  height="24"
                  viewBox="0 0 96 96"
                  fill="none"
                  xmlns="http://www.w3.org/2000/svg"
                >
                  <path
                    d="M32.4687 81.5313C31.9872 81.0492 31.7167 80.3956 31.7167 79.7142C31.7167 79.0327 31.9872 78.3792 32.4687 77.897L62.3659 47.9999L32.4687 18.1027C32.0145 17.6153 31.7672 16.9706 31.779 16.3044C31.7908 15.6382 32.0606 15.0026 32.5318 14.5315C33.0029 14.0603 33.6385 13.7905 34.3047 13.7787C34.9708 13.767 35.6156 14.0142 36.103 14.4685L67.8173 46.1828C68.2989 46.6649 68.5693 47.3185 68.5693 47.9999C68.5693 48.6813 68.2989 49.3349 67.8173 49.817L36.103 81.5313C35.6209 82.0129 34.9673 82.2833 34.2859 82.2833C33.6045 82.2833 32.9509 82.0129 32.4687 81.5313Z"
                    fill="#1E1E1E"
                  />
                </svg>